<?xml version="1.0" encoding="UTF-8"?><svg id="a" xmlns="http://www.w3.org/2000/svg" viewBox="0 0 102.34 113.8"><defs><style>.b{fill:#eb6465;}.c{fill:#333;}.d{fill:#f8c6c6;}.e{fill:#603535;}.f{fill:#999;}.g{fill:#ccc;}.h{fill:#e63b3c;}</style></defs><path class="g" d="M101.05,74l-21.98-5.01c-1.95,8.56-7.76,15.66-15.48,19.4l9.8,20.33c13.82-6.68,24.18-19.39,27.66-34.72Z"/><path class="h" d="M45.67,22.55V0C29.46,0,15.02,7.55,5.64,19.31l17.65,14.05c5.25-6.58,13.33-10.81,22.38-10.81Z"/><path class="e" d="M28.79,44.82L11.14,30.77C4.18,39.52,0,50.59,0,62.63c0,3.93,.45,7.75,1.29,11.42l21.99-5.04c-.47-2.06-.73-4.19-.73-6.39,0-6.73,2.34-12.92,6.24-17.81Z"/><path class="c" d="M23.27,69.02L1.29,74.06c3.5,15.33,13.87,28.04,27.7,34.7l9.78-20.33c-7.73-3.73-13.53-10.84-15.49-19.4Z"/><path class="f" d="M73.39,108.72l-9.8-20.33c-3.76,1.82-7.97,2.86-12.42,2.86s-8.65-1.02-12.4-2.83l-9.78,20.33c6.71,3.23,14.23,5.04,22.18,5.04s15.5-1.83,22.22-5.08Z"/><path class="d" d="M91.16,30.73l-17.63,14.07c3.91,4.9,6.26,11.1,6.26,17.84,0,2.19-.25,4.31-.72,6.36l21.98,5.01c.83-3.66,1.28-7.46,1.28-11.37,0-12.07-4.19-23.15-11.18-31.9Z"/><path class="b" d="M51.17,11.47v22.55h0c9.04,0,17.11,4.22,22.36,10.79l17.63-14.07c-9.38-11.74-23.8-19.27-39.99-19.27Z"/></svg>