<?xml version="1.0" encoding="UTF-8"?><svg id="a" xmlns="http://www.w3.org/2000/svg" viewBox="0 0 154.67 71.48"><defs><style>.b{fill:#fff;}</style></defs><polygon class="b" points="23.7 14.64 14.22 14.64 14.22 56.78 37.4 56.78 37.4 49.83 23.7 49.83 23.7 14.64"/><polygon class="b" points="80.64 21.6 88.54 21.6 88.54 49.83 80.64 49.83 80.64 56.78 105.92 56.78 105.92 49.83 98.02 49.83 98.02 21.6 105.92 21.6 105.92 14.64 80.64 14.64 80.64 21.6"/><path class="b" d="M137.34,36.24c-2.07-1.86-5.27-3.42-9.59-4.69-2.84-.84-4.75-1.63-5.71-2.37-.97-.74-1.45-1.88-1.45-3.42s.47-2.67,1.42-3.48c.95-.81,2.23-1.21,3.85-1.21s3.5,.31,5.45,.92c1.95,.62,3.92,1.52,5.93,2.71l1-6.85c-1.76-1.19-3.74-2.1-5.95-2.71-2.21-.61-4.53-.92-6.95-.92-4.32,0-7.75,1.25-10.3,3.74-2.55,2.49-3.82,5.69-3.82,9.59,0,3.55,1.11,6.22,3.34,8.03,2.23,1.81,5.33,3.27,9.3,4.4,2.46,.67,4.26,1.39,5.4,2.16,1.14,.77,1.71,1.93,1.71,3.48,0,1.41-.41,2.54-1.24,3.4-.83,.86-2.08,1.29-3.77,1.29-2.11,0-4.28-.36-6.53-1.08-2.25-.72-4.48-1.76-6.69-3.13l-1.47,7.22c2.39,1.3,4.78,2.28,7.19,2.95,2.4,.67,4.7,1,6.87,1,4.99,0,8.75-1.23,11.3-3.69,2.55-2.46,3.82-5.57,3.82-9.32,0-3.48-1.04-6.14-3.11-8.01Z"/><path class="b" d="M56.71,18.84V9.36c-6.82,0-12.9,3.18-16.84,8.12l7.43,5.91c2.21-2.77,5.61-4.55,9.42-4.55Z"/><path class="b" d="M59.03,14.18v9.49h0c3.8,0,7.2,1.77,9.41,4.54,1.65,2.06,2.63,4.67,2.63,7.51,0,.92-.11,1.81-.3,2.68-.82,3.6-3.26,6.59-6.51,8.16-1.58,.77-3.35,1.2-5.23,1.2s-3.64-.43-5.22-1.19c-3.25-1.57-5.69-4.56-6.52-8.16-.2-.86-.31-1.76-.31-2.69,0-2.83,.98-5.44,2.63-7.5l-7.43-5.91c-2.93,3.68-4.69,8.34-4.69,13.41,0,1.65,.19,3.26,.54,4.81,1.47,6.45,5.84,11.8,11.66,14.6,2.82,1.36,5.99,2.12,9.33,2.12s6.52-.77,9.35-2.14c5.82-2.81,10.18-8.16,11.64-14.61,.35-1.54,.54-3.14,.54-4.78,0-5.08-1.76-9.74-4.7-13.42-3.95-4.94-10.01-8.11-16.83-8.11Z"/></svg>