<?xml version="1.0" encoding="UTF-8"?><svg id="a" xmlns="http://www.w3.org/2000/svg" viewBox="0 0 303.58 71.48"><defs><style>.b{fill:#fff;}</style></defs><rect class="b" x="149.93" y="14.22" width="3.72" height="43.03"/><g><path class="b" d="M163.77,27.36c-.37,0-.62-.25-.62-.62v-8.79c0-.38,.23-.62,.62-.62s.62,.24,.62,.62v8.38h1.92c.32,0,.51,.23,.51,.52s-.18,.51-.51,.51h-2.54Z"/><path class="b" d="M169.74,27.36c-.41,0-.62-.27-.62-.64v-8.62c0-.37,.25-.64,.62-.64h3.49c.34,0,.51,.24,.51,.52s-.17,.51-.51,.51h-2.85v3.34h2.49c.34,0,.51,.24,.51,.52s-.17,.51-.51,.51h-2.49v3.46h2.84c.34,0,.52,.23,.52,.52s-.18,.51-.52,.51h-3.48Z"/><path class="b" d="M183.38,22.94h-1.79c-.31,0-.51-.2-.51-.51s.2-.52,.51-.52h2.27c.35,0,.57,.18,.57,.56v3.91c0,.25-.16,.4-.48,.52-.66,.3-1.68,.59-2.94,.59-3,0-4.89-1.89-4.89-5.09s1.88-5.09,4.9-5.09c1.05,0,2.15,.23,2.91,.76,.13,.09,.23,.23,.23,.44,0,.3-.23,.54-.52,.54-.14,0-.23-.06-.3-.1-.64-.4-1.37-.59-2.26-.59-2.4,0-3.69,1.43-3.69,4.04s1.29,4.04,3.74,4.04c.85,0,1.6-.14,2.25-.41v-3.11Z"/><path class="b" d="M191.28,24.32h-2.61l-.69,2.53c-.11,.42-.31,.65-.64,.65s-.59-.23-.59-.56c0-.14,.03-.27,.06-.4l2.43-8.41c.11-.37,.24-.81,.75-.81s.64,.44,.74,.81l2.43,8.42c.03,.13,.06,.25,.06,.4,0,.32-.27,.55-.59,.55s-.52-.23-.64-.64l-.69-2.54Zm-1.3-5l-1.06,3.96h2.11l-1.05-3.96Z"/><path class="b" d="M196.37,27.36c-.37,0-.62-.25-.62-.62v-8.79c0-.38,.23-.62,.62-.62s.62,.24,.62,.62v8.38h1.92c.32,0,.51,.23,.51,.52s-.18,.51-.51,.51h-2.54Z"/><g><path class="b" d="M206.21,22.42c0-3.07,2.15-5.09,4.97-5.09s4.97,2.02,4.97,5.09-2.16,5.09-4.97,5.09-4.97-2.01-4.97-5.09Zm8.66,0c0-2.49-1.57-4.04-3.69-4.04s-3.7,1.55-3.7,4.04,1.58,4.04,3.7,4.04,3.69-1.55,3.69-4.04Z"/><path class="b" d="M218.97,18.08c0-.32,.25-.61,.74-.65,.32-.06,.66-.09,.97-.09,2.33,0,3.62,1.12,3.62,3.02,0,2.13-1.27,3.05-3.42,3.05-.23,0-.45-.03-.66-.07v3.53c0,.34-.27,.62-.62,.62s-.62-.27-.62-.62v-8.8Zm1.24,4.21c.23,.07,.52,.09,.74,.09,1.37,0,2.06-.83,2.06-2.01s-.69-1.98-2.06-1.98c-.21,0-.49,0-.74,.07v3.83Z"/><path class="b" d="M227.54,27.36c-.41,0-.62-.27-.62-.64v-8.62c0-.37,.25-.64,.62-.64h3.49c.34,0,.51,.24,.51,.52s-.17,.51-.51,.51h-2.85v3.34h2.49c.34,0,.51,.24,.51,.52s-.17,.51-.51,.51h-2.49v3.46h2.84c.34,0,.52,.23,.52,.52s-.18,.51-.52,.51h-3.48Z"/><path class="b" d="M236.72,23.38c-.14,.03-.31,.04-.47,.04-.23,0-.45-.03-.66-.07v3.53c0,.35-.27,.64-.62,.64s-.62-.28-.62-.64v-8.8c0-.32,.25-.61,.74-.65,.32-.06,.66-.09,.97-.09,2.33,0,3.62,1.23,3.62,3.01,0,1.46-.64,2.37-1.74,2.78l1.61,3.08c.11,.27,.25,.49,.25,.71,0,.34-.25,.58-.55,.58-.48,0-.64-.44-.95-1.09l-1.58-3.04Zm-1.13-1.09c.23,.07,.52,.09,.74,.09,1.37,0,2.08-.96,2.08-2.01s-.71-1.98-2.08-1.98c-.21,0-.49,0-.74,.07v3.83Z"/><path class="b" d="M246.3,24.32h-2.61l-.69,2.53c-.11,.42-.31,.65-.64,.65s-.59-.23-.59-.56c0-.14,.03-.27,.06-.4l2.43-8.41c.11-.37,.24-.81,.75-.81s.64,.44,.74,.81l2.43,8.42c.03,.13,.06,.25,.06,.4,0,.32-.27,.55-.59,.55s-.52-.23-.64-.64l-.69-2.54Zm-1.3-5l-1.06,3.96h2.11l-1.05-3.96Z"/><path class="b" d="M251.2,18.5h-1.58c-.37,0-.52-.24-.52-.52,0-.27,.16-.51,.52-.51h4.42c.35,0,.51,.24,.51,.51,0,.28-.16,.52-.51,.52h-1.6v8.38c0,.35-.25,.64-.62,.64s-.62-.28-.62-.64v-8.38Z"/><path class="b" d="M256.98,17.96c0-.4,.24-.64,.62-.64s.64,.24,.64,.64v8.92c0,.38-.24,.62-.64,.62s-.62-.24-.62-.62v-8.92Z"/><path class="b" d="M261.04,22.42c0-3.07,2.15-5.09,4.97-5.09s4.97,2.02,4.97,5.09-2.16,5.09-4.97,5.09-4.97-2.01-4.97-5.09Zm8.66,0c0-2.49-1.57-4.04-3.69-4.04s-3.7,1.55-3.7,4.04,1.58,4.04,3.7,4.04,3.69-1.55,3.69-4.04Z"/><path class="b" d="M275.1,19.84c-.11-.18-.13-.37-.14-.5v7.56c0,.34-.23,.59-.61,.59s-.59-.25-.59-.59v-8.97c0-.34,.24-.61,.54-.61,.23,0,.42,.06,.69,.48l4.61,7.19c.08,.13,.11,.34,.13,.44v-7.5c0-.37,.21-.61,.61-.61s.59,.24,.59,.61v8.97c0,.35-.27,.59-.55,.59-.25,0-.41-.04-.73-.54l-4.54-7.12Z"/><path class="b" d="M286.33,27.5c-1.14,0-1.84-.27-2.42-.52-.24-.11-.34-.31-.34-.5,0-.34,.32-.64,.79-.45,.52,.18,1.09,.42,1.88,.42,1.03,0,1.85-.41,1.85-1.55,0-1.03-.68-1.61-1.72-2.32-1.17-.79-2.36-1.48-2.36-3.02,0-1.41,1.02-2.23,2.7-2.23,.9,0,1.62,.18,2.11,.5,.17,.13,.24,.3,.24,.45,0,.32-.28,.61-.71,.45-.41-.17-.9-.37-1.53-.37-1.07,0-1.55,.45-1.55,1.2,0,1.05,1.09,1.6,2.22,2.4,1.09,.78,1.87,1.57,1.87,2.98,0,1.91-1.4,2.56-3.02,2.56Z"/></g><path class="b" d="M163.13,44.6c0-.4,.24-.64,.62-.64s.64,.24,.64,.64v8.92c0,.38-.24,.62-.64,.62s-.62-.24-.62-.62v-8.92Z"/><path class="b" d="M169.36,46.48c-.11-.18-.13-.37-.14-.5v7.56c0,.34-.23,.59-.61,.59s-.59-.25-.59-.59v-8.97c0-.34,.24-.61,.54-.61,.23,0,.42,.06,.69,.48l4.61,7.19c.08,.13,.11,.34,.13,.44v-7.5c0-.37,.21-.61,.61-.61s.59,.24,.59,.61v8.97c0,.35-.27,.59-.55,.59-.25,0-.41-.04-.73-.54l-4.54-7.12Z"/><path class="b" d="M181.03,54.13c-1.14,0-1.84-.27-2.42-.52-.24-.11-.34-.31-.34-.5,0-.34,.32-.64,.79-.45,.52,.18,1.09,.42,1.88,.42,1.03,0,1.85-.41,1.85-1.55,0-1.03-.68-1.61-1.72-2.32-1.17-.79-2.36-1.48-2.36-3.02,0-1.41,1.02-2.23,2.7-2.23,.9,0,1.62,.18,2.11,.5,.17,.13,.24,.3,.24,.45,0,.32-.28,.61-.71,.45-.41-.17-.9-.37-1.53-.37-1.07,0-1.55,.45-1.55,1.2,0,1.05,1.09,1.6,2.22,2.4,1.09,.78,1.87,1.57,1.87,2.98,0,1.91-1.4,2.56-3.02,2.56Z"/><path class="b" d="M188.59,45.13h-1.58c-.37,0-.52-.24-.52-.52,0-.27,.16-.51,.52-.51h4.42c.35,0,.51,.24,.51,.51,0,.28-.16,.52-.51,.52h-1.6v8.38c0,.35-.25,.64-.62,.64s-.62-.28-.62-.64v-8.38Z"/><path class="b" d="M194.81,44.6c0-.4,.24-.64,.62-.64s.64,.24,.64,.64v8.92c0,.38-.24,.62-.64,.62s-.62-.24-.62-.62v-8.92Z"/><path class="b" d="M201.03,45.13h-1.58c-.37,0-.52-.24-.52-.52,0-.27,.16-.51,.52-.51h4.42c.35,0,.51,.24,.51,.51,0,.28-.16,.52-.51,.52h-1.6v8.38c0,.35-.25,.64-.62,.64s-.62-.28-.62-.64v-8.38Z"/><path class="b" d="M211.84,44.6c0-.4,.25-.64,.64-.64s.64,.24,.64,.64v6.68c0,2.33-1.5,2.85-2.97,2.85s-2.97-.52-2.97-2.85v-6.68c0-.4,.24-.64,.62-.64s.64,.24,.64,.64v6.44c0,1.88,1.16,2.01,1.71,2.01s1.7-.13,1.7-2.01v-6.44Z"/><path class="b" d="M218.01,45.13h-1.58c-.37,0-.52-.24-.52-.52,0-.27,.16-.51,.52-.51h4.42c.35,0,.51,.24,.51,.51,0,.28-.16,.52-.51,.52h-1.6v8.38c0,.35-.25,.64-.62,.64s-.62-.28-.62-.64v-8.38Z"/><path class="b" d="M224.85,53.99c-.41,0-.62-.27-.62-.64v-8.62c0-.37,.25-.64,.62-.64h3.49c.34,0,.51,.24,.51,.52s-.17,.51-.51,.51h-2.85v3.34h2.49c.34,0,.51,.24,.51,.52s-.17,.51-.51,.51h-2.49v3.46h2.84c.34,0,.52,.23,.52,.52s-.18,.51-.52,.51h-3.48Z"/><path class="b" d="M238.49,54.13c-1.14,0-1.84-.27-2.42-.52-.24-.11-.34-.31-.34-.5,0-.34,.32-.64,.79-.45,.52,.18,1.09,.42,1.88,.42,1.03,0,1.85-.41,1.85-1.55,0-1.03-.68-1.61-1.72-2.32-1.17-.79-2.36-1.48-2.36-3.02,0-1.41,1.02-2.23,2.7-2.23,.9,0,1.62,.18,2.11,.5,.17,.13,.24,.3,.24,.45,0,.32-.28,.61-.71,.45-.41-.17-.9-.37-1.53-.37-1.07,0-1.55,.45-1.55,1.2,0,1.05,1.09,1.6,2.22,2.4,1.09,.78,1.87,1.57,1.87,2.98,0,1.91-1.4,2.56-3.02,2.56Z"/><path class="b" d="M246.05,45.13h-1.58c-.37,0-.52-.24-.52-.52,0-.27,.16-.51,.52-.51h4.42c.35,0,.51,.24,.51,.51,0,.28-.16,.52-.51,.52h-1.6v8.38c0,.35-.25,.64-.62,.64s-.62-.28-.62-.64v-8.38Z"/><path class="b" d="M256.86,44.6c0-.4,.25-.64,.64-.64s.64,.24,.64,.64v6.68c0,2.33-1.5,2.85-2.97,2.85s-2.97-.52-2.97-2.85v-6.68c0-.4,.24-.64,.62-.64s.64,.24,.64,.64v6.44c0,1.88,1.16,2.01,1.71,2.01s1.7-.13,1.7-2.01v-6.44Z"/><path class="b" d="M261.73,44.71c0-.34,.27-.57,.61-.62,.38-.07,.85-.13,1.24-.13,3.15,0,4.56,2.49,4.56,5.09s-1.41,5.09-4.56,5.09c-.4,0-.86-.06-1.24-.13-.34-.06-.61-.28-.61-.62v-8.68Zm1.26,8.31c.24,.06,.51,.07,.72,.07,2.08,0,3.15-1.92,3.15-4.04s-1.07-4.04-3.15-4.04c-.21,0-.48,.01-.72,.07v7.94Z"/><path class="b" d="M271.36,44.6c0-.4,.24-.64,.62-.64s.64,.24,.64,.64v8.92c0,.38-.24,.62-.64,.62s-.62-.24-.62-.62v-8.92Z"/><path class="b" d="M276.89,53.99c-.41,0-.62-.27-.62-.64v-8.62c0-.37,.25-.64,.62-.64h3.49c.34,0,.51,.24,.51,.52s-.17,.51-.51,.51h-2.85v3.34h2.49c.34,0,.51,.24,.51,.52s-.17,.51-.51,.51h-2.49v3.46h2.84c.34,0,.52,.23,.52,.52s-.18,.51-.52,.51h-3.48Z"/><path class="b" d="M286.33,54.13c-1.14,0-1.84-.27-2.42-.52-.24-.11-.34-.31-.34-.5,0-.34,.32-.64,.79-.45,.52,.18,1.09,.42,1.88,.42,1.03,0,1.85-.41,1.85-1.55,0-1.03-.68-1.61-1.72-2.32-1.17-.79-2.36-1.48-2.36-3.02,0-1.41,1.02-2.23,2.7-2.23,.9,0,1.62,.18,2.11,.5,.17,.13,.24,.3,.24,.45,0,.32-.28,.61-.71,.45-.41-.17-.9-.37-1.53-.37-1.07,0-1.55,.45-1.55,1.2,0,1.05,1.09,1.6,2.22,2.4,1.09,.78,1.87,1.57,1.87,2.98,0,1.91-1.4,2.56-3.02,2.56Z"/></g><g><polygon class="b" points="23.7 14.64 14.22 14.64 14.22 56.78 37.4 56.78 37.4 49.83 23.7 49.83 23.7 14.64"/><polygon class="b" points="80.64 21.6 88.54 21.6 88.54 49.83 80.64 49.83 80.64 56.78 105.92 56.78 105.92 49.83 98.02 49.83 98.02 21.6 105.92 21.6 105.92 14.64 80.64 14.64 80.64 21.6"/><path class="b" d="M137.34,36.24c-2.07-1.86-5.27-3.42-9.59-4.69-2.84-.84-4.75-1.63-5.71-2.37-.97-.74-1.45-1.88-1.45-3.42s.47-2.67,1.42-3.48c.95-.81,2.23-1.21,3.85-1.21s3.5,.31,5.45,.92c1.95,.62,3.92,1.52,5.93,2.71l1-6.85c-1.76-1.19-3.74-2.1-5.95-2.71-2.21-.61-4.53-.92-6.95-.92-4.32,0-7.75,1.25-10.3,3.74-2.55,2.49-3.82,5.69-3.82,9.59,0,3.55,1.11,6.22,3.34,8.03,2.23,1.81,5.33,3.27,9.3,4.4,2.46,.67,4.26,1.39,5.4,2.16,1.14,.77,1.71,1.93,1.71,3.48,0,1.41-.41,2.54-1.24,3.4-.83,.86-2.08,1.29-3.77,1.29-2.11,0-4.28-.36-6.53-1.08-2.25-.72-4.48-1.76-6.69-3.13l-1.47,7.22c2.39,1.3,4.78,2.28,7.19,2.95,2.4,.67,4.7,1,6.87,1,4.99,0,8.75-1.23,11.3-3.69,2.55-2.46,3.82-5.57,3.82-9.32,0-3.48-1.04-6.14-3.11-8.01Z"/><path class="b" d="M56.71,18.84V9.36c-6.82,0-12.9,3.18-16.84,8.12l7.43,5.91c2.21-2.77,5.61-4.55,9.42-4.55Z"/><path class="b" d="M59.03,14.18v9.49h0c3.8,0,7.2,1.77,9.41,4.54,1.65,2.06,2.63,4.67,2.63,7.51,0,.92-.11,1.81-.3,2.68-.82,3.6-3.26,6.59-6.51,8.16-1.58,.77-3.35,1.2-5.23,1.2s-3.64-.43-5.22-1.19c-3.25-1.57-5.69-4.56-6.52-8.16-.2-.86-.31-1.76-.31-2.69,0-2.83,.98-5.44,2.63-7.5l-7.43-5.91c-2.93,3.68-4.69,8.34-4.69,13.41,0,1.65,.19,3.26,.54,4.81,1.47,6.45,5.84,11.8,11.66,14.6,2.82,1.36,5.99,2.12,9.33,2.12s6.52-.77,9.35-2.14c5.82-2.81,10.18-8.16,11.64-14.61,.35-1.54,.54-3.14,.54-4.78,0-5.08-1.76-9.74-4.7-13.42-3.95-4.94-10.01-8.11-16.83-8.11Z"/></g></svg>