<?xml version="1.0" encoding="UTF-8"?><svg id="a" xmlns="http://www.w3.org/2000/svg" viewBox="0 0 300 113.84"><polygon points="22.53 12.56 0 12.56 0 112.71 55.08 112.71 55.08 96.19 22.53 96.19 22.53 12.56"/><polygon points="157.85 29.09 176.63 29.09 176.63 96.19 157.85 96.19 157.85 112.71 217.94 112.71 217.94 96.19 199.16 96.19 199.16 29.09 217.94 29.09 217.94 12.56 157.85 12.56 157.85 29.09"/><path d="M292.61,63.89c-4.93-4.42-12.52-8.14-22.78-11.14-6.76-2-11.29-3.88-13.58-5.63-2.3-1.75-3.44-4.46-3.44-8.14s1.13-6.34,3.38-8.26c2.25-1.92,5.3-2.88,9.14-2.88s8.33,.73,12.96,2.19c4.63,1.46,9.33,3.61,14.08,6.45l2.38-16.28c-4.17-2.84-8.89-4.99-14.15-6.45-5.26-1.46-10.77-2.19-16.53-2.19-10.27,0-18.42,2.96-24.47,8.89-6.05,5.93-9.08,13.52-9.08,22.78,0,8.43,2.65,14.79,7.95,19.09,5.3,4.3,12.66,7.78,22.1,10.45,5.84,1.59,10.12,3.3,12.83,5.13,2.71,1.84,4.07,4.59,4.07,8.26,0,3.34-.98,6.03-2.94,8.08-1.96,2.05-4.94,3.07-8.95,3.07-5.01,0-10.18-.86-15.52-2.57-5.34-1.71-10.64-4.19-15.9-7.45l-3.51,17.15c5.67,3.09,11.37,5.43,17.09,7.01,5.72,1.58,11.16,2.38,16.34,2.38,11.85,0,20.8-2.92,26.85-8.76,6.05-5.84,9.08-13.23,9.08-22.16,0-8.26-2.46-14.6-7.39-19.03Z"/><path d="M100.99,22.55V0c-16.21,0-30.65,7.55-40.03,19.31l17.65,14.05c5.25-6.58,13.33-10.81,22.38-10.81Z"/><path d="M106.49,11.47v22.55h0c9.04,0,17.11,4.22,22.36,10.79,3.91,4.9,6.26,11.1,6.26,17.84,0,2.19-.25,4.31-.72,6.36-1.95,8.56-7.76,15.66-15.48,19.4-3.76,1.82-7.97,2.86-12.42,2.86s-8.65-1.02-12.4-2.83c-7.73-3.73-13.53-10.84-15.49-19.4-.47-2.06-.73-4.19-.73-6.39,0-6.73,2.34-12.92,6.24-17.81l-17.65-14.05c-6.97,8.74-11.14,19.81-11.14,31.86,0,3.93,.45,7.75,1.29,11.42,3.5,15.33,13.87,28.04,27.7,34.7,6.71,3.23,14.23,5.04,22.18,5.04s15.5-1.83,22.22-5.08c13.82-6.68,24.18-19.39,27.66-34.72,.83-3.66,1.28-7.46,1.28-11.37,0-12.07-4.19-23.15-11.18-31.9-9.38-11.74-23.8-19.27-39.99-19.27Z"/></svg>