<?xml version="1.0" encoding="utf-8"?>
<!-- Generator: Adobe Illustrator 27.3.1, SVG Export Plug-In . SVG Version: 6.00 Build 0)  -->
<svg version="1.1" id="a" xmlns="http://www.w3.org/2000/svg" xmlns:xlink="http://www.w3.org/1999/xlink" x="0px" y="0px"
	 viewBox="0 0 303.6 71.5" style="enable-background:new 0 0 303.6 71.5;" xml:space="preserve">
<rect x="149.9" y="14.2" width="3.7" height="43"/>
<g>
	<path d="M163.8,27.4c-0.4,0-0.6-0.2-0.6-0.6V18c0-0.4,0.2-0.6,0.6-0.6s0.6,0.2,0.6,0.6v8.4h1.9c0.3,0,0.5,0.2,0.5,0.5
		s-0.2,0.5-0.5,0.5C166.3,27.4,163.8,27.4,163.8,27.4z"/>
	<path d="M169.7,27.4c-0.4,0-0.6-0.3-0.6-0.6v-8.6c0-0.4,0.2-0.6,0.6-0.6h3.5c0.3,0,0.5,0.2,0.5,0.5s-0.2,0.5-0.5,0.5h-2.9v3.3h2.5
		c0.3,0,0.5,0.2,0.5,0.5s-0.2,0.5-0.5,0.5h-2.5v3.5h2.8c0.3,0,0.5,0.2,0.5,0.5s-0.2,0.5-0.5,0.5L169.7,27.4L169.7,27.4z"/>
	<path d="M183.4,22.9h-1.8c-0.3,0-0.5-0.2-0.5-0.5s0.2-0.5,0.5-0.5h2.3c0.4,0,0.6,0.2,0.6,0.6v3.9c0,0.2-0.2,0.4-0.5,0.5
		c-0.7,0.3-1.7,0.6-2.9,0.6c-3,0-4.9-1.9-4.9-5.1s1.9-5.1,4.9-5.1c1.1,0,2.1,0.2,2.9,0.8c0.1,0.1,0.2,0.2,0.2,0.4
		c0,0.3-0.2,0.5-0.5,0.5c-0.1,0-0.2-0.1-0.3-0.1c-0.6-0.4-1.4-0.6-2.3-0.6c-2.4,0-3.7,1.4-3.7,4s1.3,4,3.7,4c0.9,0,1.6-0.1,2.2-0.4
		L183.4,22.9L183.4,22.9z"/>
	<path d="M191.3,24.3h-2.6l-0.7,2.5c-0.1,0.4-0.3,0.6-0.6,0.6s-0.6-0.2-0.6-0.6c0-0.1,0-0.3,0.1-0.4l2.4-8.4
		c0.1-0.4,0.2-0.8,0.8-0.8s0.6,0.4,0.7,0.8l2.4,8.4c0,0.1,0.1,0.2,0.1,0.4c0,0.3-0.3,0.5-0.6,0.5s-0.5-0.2-0.6-0.6L191.3,24.3
		L191.3,24.3z M190,19.3l-1.1,4h2.1L190,19.3z"/>
	<path d="M196.4,27.4c-0.4,0-0.6-0.2-0.6-0.6V18c0-0.4,0.2-0.6,0.6-0.6s0.6,0.2,0.6,0.6v8.4h1.9c0.3,0,0.5,0.2,0.5,0.5
		s-0.2,0.5-0.5,0.5C198.9,27.4,196.4,27.4,196.4,27.4z"/>
	<g>
		<path d="M206.2,22.4c0-3.1,2.1-5.1,5-5.1s5,2,5,5.1s-2.2,5.1-5,5.1S206.2,25.5,206.2,22.4z M214.9,22.4c0-2.5-1.6-4-3.7-4
			s-3.7,1.5-3.7,4s1.6,4,3.7,4S214.9,24.9,214.9,22.4z"/>
		<path d="M219,18.1c0-0.3,0.2-0.6,0.7-0.6c0.3-0.1,0.7-0.1,1-0.1c2.3,0,3.6,1.1,3.6,3c0,2.1-1.3,3-3.4,3c-0.2,0-0.4,0-0.7-0.1v3.5
			c0,0.3-0.3,0.6-0.6,0.6s-0.6-0.3-0.6-0.6L219,18.1L219,18.1z M220.2,22.3c0.2,0.1,0.5,0.1,0.7,0.1c1.4,0,2.1-0.8,2.1-2
			s-0.7-2-2.1-2c-0.2,0-0.5,0-0.7,0.1V22.3z"/>
		<path d="M227.5,27.4c-0.4,0-0.6-0.3-0.6-0.6v-8.6c0-0.4,0.2-0.6,0.6-0.6h3.5c0.3,0,0.5,0.2,0.5,0.5s-0.2,0.5-0.5,0.5h-2.9v3.3h2.5
			c0.3,0,0.5,0.2,0.5,0.5s-0.2,0.5-0.5,0.5h-2.5v3.5h2.8c0.3,0,0.5,0.2,0.5,0.5s-0.2,0.5-0.5,0.5L227.5,27.4L227.5,27.4z"/>
		<path d="M236.7,23.4c-0.1,0-0.3,0-0.5,0c-0.2,0-0.4,0-0.7-0.1v3.5c0,0.4-0.3,0.6-0.6,0.6s-0.6-0.3-0.6-0.6v-8.8
			c0-0.3,0.2-0.6,0.7-0.6c0.3-0.1,0.7-0.1,1-0.1c2.3,0,3.6,1.2,3.6,3c0,1.5-0.6,2.4-1.7,2.8l1.6,3.1c0.1,0.3,0.2,0.5,0.2,0.7
			c0,0.3-0.2,0.6-0.6,0.6c-0.5,0-0.6-0.4-0.9-1.1L236.7,23.4L236.7,23.4z M235.6,22.3c0.2,0.1,0.5,0.1,0.7,0.1c1.4,0,2.1-1,2.1-2
			s-0.7-2-2.1-2c-0.2,0-0.5,0-0.7,0.1V22.3z"/>
		<path d="M246.3,24.3h-2.6l-0.7,2.5c-0.1,0.4-0.3,0.6-0.6,0.6s-0.6-0.2-0.6-0.6c0-0.1,0-0.3,0.1-0.4l2.4-8.4
			c0.1-0.4,0.2-0.8,0.8-0.8s0.6,0.4,0.7,0.8l2.4,8.4c0,0.1,0.1,0.2,0.1,0.4c0,0.3-0.3,0.5-0.6,0.5s-0.5-0.2-0.6-0.6L246.3,24.3
			L246.3,24.3z M245,19.3l-1.1,4h2.1L245,19.3z"/>
		<path d="M251.2,18.5h-1.6c-0.4,0-0.5-0.2-0.5-0.5c0-0.3,0.2-0.5,0.5-0.5h4.4c0.4,0,0.5,0.2,0.5,0.5c0,0.3-0.2,0.5-0.5,0.5h-1.6
			v8.4c0,0.4-0.2,0.6-0.6,0.6s-0.6-0.3-0.6-0.6V18.5z"/>
		<path d="M257,18c0-0.4,0.2-0.6,0.6-0.6s0.6,0.2,0.6,0.6v8.9c0,0.4-0.2,0.6-0.6,0.6s-0.6-0.2-0.6-0.6V18z"/>
		<path d="M261,22.4c0-3.1,2.1-5.1,5-5.1s5,2,5,5.1s-2.2,5.1-5,5.1S261,25.5,261,22.4z M269.7,22.4c0-2.5-1.6-4-3.7-4
			s-3.7,1.5-3.7,4s1.6,4,3.7,4S269.7,24.9,269.7,22.4z"/>
		<path d="M275.1,19.8c-0.1-0.2-0.1-0.4-0.1-0.5v7.6c0,0.3-0.2,0.6-0.6,0.6s-0.6-0.2-0.6-0.6v-9c0-0.3,0.2-0.6,0.5-0.6
			c0.2,0,0.4,0.1,0.7,0.5l4.6,7.2c0.1,0.1,0.1,0.3,0.1,0.4v-7.5c0-0.4,0.2-0.6,0.6-0.6s0.6,0.2,0.6,0.6v9c0,0.4-0.3,0.6-0.5,0.6
			c-0.2,0-0.4,0-0.7-0.5L275.1,19.8L275.1,19.8z"/>
		<path d="M286.3,27.5c-1.1,0-1.8-0.3-2.4-0.5c-0.2-0.1-0.3-0.3-0.3-0.5c0-0.3,0.3-0.6,0.8-0.5c0.5,0.2,1.1,0.4,1.9,0.4
			c1,0,1.9-0.4,1.9-1.5c0-1-0.7-1.6-1.7-2.3c-1.2-0.8-2.4-1.5-2.4-3c0-1.4,1-2.2,2.7-2.2c0.9,0,1.6,0.2,2.1,0.5
			c0.2,0.1,0.2,0.3,0.2,0.5c0,0.3-0.3,0.6-0.7,0.5c-0.4-0.2-0.9-0.4-1.5-0.4c-1.1,0-1.5,0.5-1.5,1.2c0,1,1.1,1.6,2.2,2.4
			c1.1,0.8,1.9,1.6,1.9,3C289.4,26.9,288,27.5,286.3,27.5L286.3,27.5z"/>
	</g>
	<path d="M163.1,44.6c0-0.4,0.2-0.6,0.6-0.6s0.6,0.2,0.6,0.6v8.9c0,0.4-0.2,0.6-0.6,0.6s-0.6-0.2-0.6-0.6V44.6z"/>
	<path d="M169.4,46.5c-0.1-0.2-0.1-0.4-0.1-0.5v7.6c0,0.3-0.2,0.6-0.6,0.6s-0.6-0.2-0.6-0.6v-9c0-0.3,0.2-0.6,0.5-0.6
		c0.2,0,0.4,0.1,0.7,0.5l4.6,7.2c0.1,0.1,0.1,0.3,0.1,0.4v-7.5c0-0.4,0.2-0.6,0.6-0.6s0.6,0.2,0.6,0.6v9c0,0.3-0.3,0.6-0.6,0.6
		c-0.2,0-0.4,0-0.7-0.5L169.4,46.5L169.4,46.5z"/>
	<path d="M181,54.1c-1.1,0-1.8-0.3-2.4-0.5c-0.2-0.1-0.3-0.3-0.3-0.5c0-0.3,0.3-0.6,0.8-0.5c0.5,0.2,1.1,0.4,1.9,0.4
		c1,0,1.9-0.4,1.9-1.5c0-1-0.7-1.6-1.7-2.3c-1.2-0.8-2.4-1.5-2.4-3c0-1.4,1-2.2,2.7-2.2c0.9,0,1.6,0.2,2.1,0.5
		c0.2,0.1,0.2,0.3,0.2,0.5c0,0.3-0.3,0.6-0.7,0.5c-0.4-0.2-0.9-0.4-1.5-0.4c-1.1,0-1.6,0.5-1.6,1.2c0,1,1.1,1.6,2.2,2.4
		c1.1,0.8,1.9,1.6,1.9,3C184.1,53.5,182.7,54.1,181,54.1L181,54.1z"/>
	<path d="M188.6,45.1H187c-0.4,0-0.5-0.2-0.5-0.5c0-0.3,0.2-0.5,0.5-0.5h4.4c0.4,0,0.5,0.2,0.5,0.5c0,0.3-0.2,0.5-0.5,0.5h-1.6v8.4
		c0,0.3-0.2,0.6-0.6,0.6s-0.6-0.3-0.6-0.6V45.1z"/>
	<path d="M194.8,44.6c0-0.4,0.2-0.6,0.6-0.6s0.6,0.2,0.6,0.6v8.9c0,0.4-0.2,0.6-0.6,0.6s-0.6-0.2-0.6-0.6V44.6z"/>
	<path d="M201,45.1h-1.6c-0.4,0-0.5-0.2-0.5-0.5c0-0.3,0.2-0.5,0.5-0.5h4.4c0.4,0,0.5,0.2,0.5,0.5c0,0.3-0.2,0.5-0.5,0.5h-1.6v8.4
		c0,0.3-0.2,0.6-0.6,0.6s-0.6-0.3-0.6-0.6V45.1z"/>
	<path d="M211.8,44.6c0-0.4,0.2-0.6,0.6-0.6s0.6,0.2,0.6,0.6v6.7c0,2.3-1.5,2.8-3,2.8s-3-0.5-3-2.8v-6.7c0-0.4,0.2-0.6,0.6-0.6
		s0.6,0.2,0.6,0.6V51c0,1.9,1.2,2,1.7,2s1.7-0.1,1.7-2L211.8,44.6L211.8,44.6z"/>
	<path d="M218,45.1h-1.6c-0.4,0-0.5-0.2-0.5-0.5c0-0.3,0.2-0.5,0.5-0.5h4.4c0.4,0,0.5,0.2,0.5,0.5c0,0.3-0.2,0.5-0.5,0.5h-1.6v8.4
		c0,0.3-0.2,0.6-0.6,0.6s-0.6-0.3-0.6-0.6V45.1z"/>
	<path d="M224.9,54c-0.4,0-0.6-0.3-0.6-0.6v-8.6c0-0.4,0.2-0.6,0.6-0.6h3.5c0.3,0,0.5,0.2,0.5,0.5s-0.2,0.5-0.5,0.5h-2.9v3.3h2.5
		c0.3,0,0.5,0.2,0.5,0.5s-0.2,0.5-0.5,0.5h-2.5V53h2.8c0.3,0,0.5,0.2,0.5,0.5s-0.2,0.5-0.5,0.5L224.9,54L224.9,54z"/>
	<path d="M238.5,54.1c-1.1,0-1.8-0.3-2.4-0.5c-0.2-0.1-0.3-0.3-0.3-0.5c0-0.3,0.3-0.6,0.8-0.5c0.5,0.2,1.1,0.4,1.9,0.4
		c1,0,1.9-0.4,1.9-1.5c0-1-0.7-1.6-1.7-2.3c-1.2-0.8-2.4-1.5-2.4-3c0-1.4,1-2.2,2.7-2.2c0.9,0,1.6,0.2,2.1,0.5
		c0.2,0.1,0.2,0.3,0.2,0.5c0,0.3-0.3,0.6-0.7,0.5c-0.4-0.2-0.9-0.4-1.5-0.4c-1.1,0-1.6,0.5-1.6,1.2c0,1,1.1,1.6,2.2,2.4
		c1.1,0.8,1.9,1.6,1.9,3C241.5,53.5,240.1,54.1,238.5,54.1L238.5,54.1z"/>
	<path d="M246.1,45.1h-1.6c-0.4,0-0.5-0.2-0.5-0.5c0-0.3,0.2-0.5,0.5-0.5h4.4c0.4,0,0.5,0.2,0.5,0.5c0,0.3-0.2,0.5-0.5,0.5h-1.6v8.4
		c0,0.3-0.2,0.6-0.6,0.6s-0.6-0.3-0.6-0.6V45.1z"/>
	<path d="M256.9,44.6c0-0.4,0.2-0.6,0.6-0.6s0.6,0.2,0.6,0.6v6.7c0,2.3-1.5,2.8-3,2.8s-3-0.5-3-2.8v-6.7c0-0.4,0.2-0.6,0.6-0.6
		s0.6,0.2,0.6,0.6V51c0,1.9,1.2,2,1.7,2s1.7-0.1,1.7-2L256.9,44.6L256.9,44.6z"/>
	<path d="M261.7,44.7c0-0.3,0.3-0.6,0.6-0.6c0.4-0.1,0.9-0.1,1.2-0.1c3.1,0,4.6,2.5,4.6,5.1s-1.4,5.1-4.6,5.1
		c-0.4,0-0.9-0.1-1.2-0.1c-0.3-0.1-0.6-0.3-0.6-0.6V44.7z M263,53c0.2,0.1,0.5,0.1,0.7,0.1c2.1,0,3.1-1.9,3.1-4s-1.1-4-3.1-4
		c-0.2,0-0.5,0-0.7,0.1C263,45.1,263,53,263,53z"/>
	<path d="M271.4,44.6c0-0.4,0.2-0.6,0.6-0.6s0.6,0.2,0.6,0.6v8.9c0,0.4-0.2,0.6-0.6,0.6s-0.6-0.2-0.6-0.6V44.6z"/>
	<path d="M276.9,54c-0.4,0-0.6-0.3-0.6-0.6v-8.6c0-0.4,0.2-0.6,0.6-0.6h3.5c0.3,0,0.5,0.2,0.5,0.5s-0.2,0.5-0.5,0.5h-2.9v3.3h2.5
		c0.3,0,0.5,0.2,0.5,0.5s-0.2,0.5-0.5,0.5h-2.5V53h2.8c0.3,0,0.5,0.2,0.5,0.5s-0.2,0.5-0.5,0.5L276.9,54L276.9,54z"/>
	<path d="M286.3,54.1c-1.1,0-1.8-0.3-2.4-0.5c-0.2-0.1-0.3-0.3-0.3-0.5c0-0.3,0.3-0.6,0.8-0.5c0.5,0.2,1.1,0.4,1.9,0.4
		c1,0,1.9-0.4,1.9-1.5c0-1-0.7-1.6-1.7-2.3c-1.2-0.8-2.4-1.5-2.4-3c0-1.4,1-2.2,2.7-2.2c0.9,0,1.6,0.2,2.1,0.5
		c0.2,0.1,0.2,0.3,0.2,0.5c0,0.3-0.3,0.6-0.7,0.5c-0.4-0.2-0.9-0.4-1.5-0.4c-1.1,0-1.5,0.5-1.5,1.2c0,1,1.1,1.6,2.2,2.4
		c1.1,0.8,1.9,1.6,1.9,3C289.4,53.5,288,54.1,286.3,54.1L286.3,54.1z"/>
</g>
<g>
	<polygon points="23.7,14.6 14.2,14.6 14.2,56.8 37.4,56.8 37.4,49.8 23.7,49.8 	"/>
	<polygon points="80.6,21.6 88.5,21.6 88.5,49.8 80.6,49.8 80.6,56.8 105.9,56.8 105.9,49.8 98,49.8 98,21.6 105.9,21.6 105.9,14.6 
		80.6,14.6 	"/>
	<path d="M137.3,36.2c-2.1-1.9-5.3-3.4-9.6-4.7c-2.8-0.8-4.8-1.6-5.7-2.4c-1-0.7-1.4-1.9-1.4-3.4s0.5-2.7,1.4-3.5s2.2-1.2,3.8-1.2
		s3.5,0.3,5.4,0.9c1.9,0.6,3.9,1.5,5.9,2.7l1-6.9c-1.8-1.2-3.7-2.1-5.9-2.7c-2.2-0.6-4.5-0.9-6.9-0.9c-4.3,0-7.8,1.2-10.3,3.7
		s-3.8,5.7-3.8,9.6c0,3.5,1.1,6.2,3.3,8c2.2,1.8,5.3,3.3,9.3,4.4c2.5,0.7,4.3,1.4,5.4,2.2s1.7,1.9,1.7,3.5c0,1.4-0.4,2.5-1.2,3.4
		s-2.1,1.3-3.8,1.3c-2.1,0-4.3-0.4-6.5-1.1s-4.5-1.8-6.7-3.1l-1.5,7.2c2.4,1.3,4.8,2.3,7.2,3c2.4,0.7,4.7,1,6.9,1
		c5,0,8.8-1.2,11.3-3.7s3.8-5.6,3.8-9.3C140.5,40.8,139.4,38.1,137.3,36.2L137.3,36.2z"/>
	<path d="M56.7,18.8V9.4c-6.8,0-12.9,3.2-16.8,8.1l7.4,5.9C49.5,20.6,52.9,18.8,56.7,18.8L56.7,18.8z"/>
	<path d="M59,14.2v9.5l0,0c3.8,0,7.2,1.8,9.4,4.5c1.7,2.1,2.6,4.7,2.6,7.5c0,0.9-0.1,1.8-0.3,2.7c-0.8,3.6-3.3,6.6-6.5,8.2
		c-1.6,0.8-3.3,1.2-5.2,1.2s-3.6-0.4-5.2-1.2c-3.2-1.6-5.7-4.6-6.5-8.2c-0.2-0.9-0.3-1.8-0.3-2.7c0-2.8,1-5.4,2.6-7.5l-7.4-5.9
		c-2.9,3.7-4.7,8.3-4.7,13.4c0,1.7,0.2,3.3,0.5,4.8c1.5,6.5,5.8,11.8,11.7,14.6c2.8,1.4,6,2.1,9.3,2.1s6.5-0.8,9.3-2.1
		C74.2,52.3,78.5,47,80,40.5c0.3-1.5,0.5-3.1,0.5-4.8c0-5.1-1.8-9.7-4.7-13.4C71.9,17.4,65.8,14.2,59,14.2L59,14.2z"/>
</g>
</svg>
