<?xml version="1.0" encoding="utf-8"?>
<!-- Generator: Adobe Illustrator 26.5.0, SVG Export Plug-In . SVG Version: 6.00 Build 0)  -->
<svg version="1.1" id="a" xmlns="http://www.w3.org/2000/svg" xmlns:xlink="http://www.w3.org/1999/xlink" x="0px" y="0px"
	 viewBox="0 0 154.7 147.1" style="enable-background:new 0 0 154.7 147.1;" xml:space="preserve">
<g>
	<path d="M14.2,123.4c0-0.4,0.2-0.6,0.6-0.6s0.6,0.2,0.6,0.6v8.9c0,0.4-0.2,0.6-0.6,0.6s-0.6-0.2-0.6-0.6V123.4z"/>
	<path d="M20.5,125.2c-0.1-0.2-0.1-0.4-0.1-0.5v7.6c0,0.3-0.2,0.6-0.6,0.6s-0.6-0.2-0.6-0.6v-9c0-0.3,0.2-0.6,0.5-0.6
		c0.2,0,0.4,0.1,0.7,0.5l4.6,7.2c0.1,0.1,0.1,0.3,0.1,0.4v-7.5c0-0.4,0.2-0.6,0.6-0.6s0.6,0.2,0.6,0.6v9c0,0.4-0.3,0.6-0.5,0.6
		c-0.2,0-0.4,0-0.7-0.5L20.5,125.2L20.5,125.2z"/>
	<path d="M32.1,132.9c-1.1,0-1.8-0.3-2.4-0.5c-0.2-0.1-0.3-0.3-0.3-0.5c0-0.3,0.3-0.6,0.8-0.4c0.5,0.2,1.1,0.4,1.9,0.4
		c1,0,1.8-0.4,1.8-1.6c0-1-0.7-1.6-1.7-2.3c-1.2-0.8-2.4-1.5-2.4-3c0-1.4,1-2.2,2.7-2.2c0.9,0,1.6,0.2,2.1,0.5
		c0.2,0.1,0.2,0.3,0.2,0.4c0,0.3-0.3,0.6-0.7,0.4c-0.4-0.2-0.9-0.4-1.5-0.4c-1.1,0-1.5,0.4-1.5,1.2c0,1.1,1.1,1.6,2.2,2.4
		c1.1,0.8,1.9,1.6,1.9,3C35.2,132.2,33.8,132.9,32.1,132.9L32.1,132.9z"/>
	<path d="M39.7,123.9h-1.6c-0.4,0-0.5-0.2-0.5-0.5c0-0.3,0.2-0.5,0.5-0.5h4.4c0.3,0,0.5,0.2,0.5,0.5c0,0.3-0.2,0.5-0.5,0.5h-1.6v8.4
		c0,0.4-0.2,0.6-0.6,0.6s-0.6-0.3-0.6-0.6C39.7,132.3,39.7,123.9,39.7,123.9z"/>
	<path d="M45.9,123.4c0-0.4,0.2-0.6,0.6-0.6s0.6,0.2,0.6,0.6v8.9c0,0.4-0.2,0.6-0.6,0.6s-0.6-0.2-0.6-0.6V123.4z"/>
	<path d="M52.1,123.9h-1.6c-0.4,0-0.5-0.2-0.5-0.5c0-0.3,0.2-0.5,0.5-0.5H55c0.3,0,0.5,0.2,0.5,0.5c0,0.3-0.2,0.5-0.5,0.5h-1.6v8.4
		c0,0.4-0.2,0.6-0.6,0.6s-0.6-0.3-0.6-0.6C52.1,132.3,52.1,123.9,52.1,123.9z"/>
	<path d="M62.9,123.4c0-0.4,0.2-0.6,0.6-0.6s0.6,0.2,0.6,0.6v6.7c0,2.3-1.5,2.9-3,2.9s-3-0.5-3-2.9v-6.7c0-0.4,0.2-0.6,0.6-0.6
		s0.6,0.2,0.6,0.6v6.4c0,1.9,1.2,2,1.7,2s1.7-0.1,1.7-2L62.9,123.4L62.9,123.4z"/>
	<path d="M69.1,123.9h-1.6c-0.4,0-0.5-0.2-0.5-0.5c0-0.3,0.2-0.5,0.5-0.5h4.4c0.3,0,0.5,0.2,0.5,0.5c0,0.3-0.2,0.5-0.5,0.5h-1.6v8.4
		c0,0.4-0.2,0.6-0.6,0.6s-0.6-0.3-0.6-0.6C69.1,132.3,69.1,123.9,69.1,123.9z"/>
	<path d="M75.9,132.8c-0.4,0-0.6-0.3-0.6-0.6v-8.6c0-0.4,0.2-0.6,0.6-0.6h3.5c0.3,0,0.5,0.2,0.5,0.5s-0.2,0.5-0.5,0.5h-2.8v3.3h2.5
		c0.3,0,0.5,0.2,0.5,0.5s-0.2,0.5-0.5,0.5h-2.5v3.5h2.8c0.3,0,0.5,0.2,0.5,0.5s-0.2,0.5-0.5,0.5L75.9,132.8L75.9,132.8z"/>
	<path d="M89.6,132.9c-1.1,0-1.8-0.3-2.4-0.5c-0.2-0.1-0.3-0.3-0.3-0.5c0-0.3,0.3-0.6,0.8-0.4c0.5,0.2,1.1,0.4,1.9,0.4
		c1,0,1.8-0.4,1.8-1.6c0-1-0.7-1.6-1.7-2.3c-1.2-0.8-2.4-1.5-2.4-3c0-1.4,1-2.2,2.7-2.2c0.9,0,1.6,0.2,2.1,0.5
		c0.2,0.1,0.2,0.3,0.2,0.4c0,0.3-0.3,0.6-0.7,0.4c-0.4-0.2-0.9-0.4-1.5-0.4c-1.1,0-1.6,0.4-1.6,1.2c0,1.1,1.1,1.6,2.2,2.4
		c1.1,0.8,1.9,1.6,1.9,3C92.6,132.2,91.2,132.9,89.6,132.9L89.6,132.9z"/>
	<path d="M97.1,123.9h-1.6c-0.4,0-0.5-0.2-0.5-0.5c0-0.3,0.2-0.5,0.5-0.5h4.4c0.3,0,0.5,0.2,0.5,0.5c0,0.3-0.2,0.5-0.5,0.5h-1.6v8.4
		c0,0.4-0.2,0.6-0.6,0.6s-0.6-0.3-0.6-0.6C97.1,132.3,97.1,123.9,97.1,123.9z"/>
	<path d="M107.9,123.4c0-0.4,0.2-0.6,0.6-0.6s0.6,0.2,0.6,0.6v6.7c0,2.3-1.5,2.9-3,2.9s-3-0.5-3-2.9v-6.7c0-0.4,0.2-0.6,0.6-0.6
		s0.6,0.2,0.6,0.6v6.4c0,1.9,1.2,2,1.7,2s1.7-0.1,1.7-2L107.9,123.4L107.9,123.4z"/>
	<path d="M112.8,123.5c0-0.3,0.3-0.6,0.6-0.6c0.4-0.1,0.8-0.1,1.2-0.1c3.2,0,4.6,2.5,4.6,5.1c0,2.6-1.4,5.1-4.6,5.1
		c-0.4,0-0.9-0.1-1.2-0.1c-0.3-0.1-0.6-0.3-0.6-0.6C112.8,132.1,112.8,123.5,112.8,123.5z M114.1,131.8c0.2,0.1,0.5,0.1,0.7,0.1
		c2.1,0,3.2-1.9,3.2-4s-1.1-4-3.2-4c-0.2,0-0.5,0-0.7,0.1V131.8z"/>
	<path d="M122.4,123.4c0-0.4,0.2-0.6,0.6-0.6s0.6,0.2,0.6,0.6v8.9c0,0.4-0.2,0.6-0.6,0.6s-0.6-0.2-0.6-0.6V123.4z"/>
	<path d="M128,132.8c-0.4,0-0.6-0.3-0.6-0.6v-8.6c0-0.4,0.2-0.6,0.6-0.6h3.5c0.3,0,0.5,0.2,0.5,0.5s-0.2,0.5-0.5,0.5h-2.9v3.3h2.5
		c0.3,0,0.5,0.2,0.5,0.5s-0.2,0.5-0.5,0.5h-2.5v3.5h2.8c0.3,0,0.5,0.2,0.5,0.5s-0.2,0.5-0.5,0.5L128,132.8L128,132.8z"/>
	<path d="M137.4,132.9c-1.1,0-1.8-0.3-2.4-0.5c-0.2-0.1-0.3-0.3-0.3-0.5c0-0.3,0.3-0.6,0.8-0.4c0.5,0.2,1.1,0.4,1.9,0.4
		c1,0,1.9-0.4,1.9-1.6c0-1-0.7-1.6-1.7-2.3c-1.2-0.8-2.4-1.5-2.4-3c0-1.4,1-2.2,2.7-2.2c0.9,0,1.6,0.2,2.1,0.5
		c0.2,0.1,0.2,0.3,0.2,0.4c0,0.3-0.3,0.6-0.7,0.4c-0.4-0.2-0.9-0.4-1.5-0.4c-1.1,0-1.6,0.4-1.6,1.2c0,1.1,1.1,1.6,2.2,2.4
		c1.1,0.8,1.9,1.6,1.9,3C140.4,132.2,139.1,132.9,137.4,132.9L137.4,132.9z"/>
</g>
<g>
	<polygon points="23.7,19.5 14.2,19.5 14.2,61.7 37.4,61.7 37.4,54.7 23.7,54.7 	"/>
	<polygon points="80.6,26.5 88.5,26.5 88.5,54.7 80.6,54.7 80.6,61.7 105.9,61.7 105.9,54.7 98,54.7 98,26.5 105.9,26.5 105.9,19.5 
		80.6,19.5 	"/>
	<path d="M137.3,41.1c-2.1-1.9-5.3-3.4-9.6-4.7c-2.8-0.8-4.8-1.6-5.7-2.4c-1-0.7-1.4-1.9-1.4-3.4s0.5-2.7,1.4-3.5s2.2-1.2,3.8-1.2
		s3.5,0.3,5.4,0.9c1.9,0.6,3.9,1.5,5.9,2.7l1-6.9c-1.8-1.2-3.7-2.1-5.9-2.7c-2.2-0.6-4.5-0.9-6.9-0.9c-4.3,0-7.8,1.2-10.3,3.7
		s-3.8,5.7-3.8,9.6c0,3.5,1.1,6.2,3.3,8c2.2,1.8,5.3,3.3,9.3,4.4c2.5,0.7,4.3,1.4,5.4,2.2s1.7,1.9,1.7,3.5c0,1.4-0.4,2.5-1.2,3.4
		s-2.1,1.3-3.8,1.3c-2.1,0-4.3-0.4-6.5-1.1s-4.5-1.8-6.7-3.1l-1.5,7.2c2.4,1.3,4.8,2.3,7.2,3c2.4,0.7,4.7,1,6.9,1
		c5,0,8.8-1.2,11.3-3.7s3.8-5.6,3.8-9.3C140.5,45.6,139.4,43,137.3,41.1L137.3,41.1z"/>
	<path d="M56.7,23.7v-9.5c-6.8,0-12.9,3.2-16.8,8.1l7.4,5.9C49.5,25.5,52.9,23.7,56.7,23.7L56.7,23.7z"/>
	<path d="M59,19v9.5l0,0c3.8,0,7.2,1.8,9.4,4.5c1.7,2.1,2.6,4.7,2.6,7.5c0,0.9-0.1,1.8-0.3,2.7c-0.8,3.6-3.3,6.6-6.5,8.2
		c-1.6,0.8-3.3,1.2-5.2,1.2s-3.6-0.4-5.2-1.2c-3.2-1.6-5.7-4.6-6.5-8.2c-0.2-0.9-0.3-1.8-0.3-2.7c0-2.8,1-5.4,2.6-7.5l-7.4-5.9
		c-2.9,3.7-4.7,8.3-4.7,13.4c0,1.7,0.2,3.3,0.5,4.8c1.5,6.5,5.8,11.8,11.7,14.6c2.8,1.4,6,2.1,9.3,2.1s6.5-0.8,9.3-2.1
		c5.8-2.8,10.2-8.2,11.6-14.6c0.3-1.5,0.5-3.1,0.5-4.8c0-5.1-1.8-9.7-4.7-13.4C71.9,22.2,65.8,19.1,59,19L59,19z"/>
</g>
<g>
	<g>
		<path d="M14.2,61.7V19.5h9.5v35.2h13.7v7L14.2,61.7L14.2,61.7z"/>
		<path d="M80.6,61.7v-7h7.9V26.5h-7.9v-7h25.3v7H98v28.2h7.9v7L80.6,61.7L80.6,61.7z"/>
		<path d="M125.3,62.1c-2.2,0-4.5-0.3-6.9-1c-2.4-0.7-4.8-1.7-7.2-3l1.5-7.2c2.2,1.4,4.4,2.4,6.7,3.1s4.4,1.1,6.5,1.1
			c1.7,0,2.9-0.4,3.8-1.3c0.8-0.9,1.2-2,1.2-3.4c0-1.5-0.6-2.7-1.7-3.5c-1.1-0.8-2.9-1.5-5.4-2.2c-4-1.1-7.1-2.6-9.3-4.4
			s-3.3-4.5-3.3-8c0-3.9,1.3-7.1,3.8-9.6c2.6-2.5,6-3.7,10.3-3.7c2.4,0,4.7,0.3,6.9,0.9c2.2,0.6,4.2,1.5,5.9,2.7l-1,6.9
			c-2-1.2-4-2.1-5.9-2.7s-3.8-0.9-5.4-0.9s-2.9,0.4-3.8,1.2c-0.9,0.8-1.4,2-1.4,3.5c0,1.5,0.5,2.7,1.4,3.4c1,0.7,2.9,1.5,5.7,2.4
			c4.3,1.3,7.5,2.8,9.6,4.7c2.1,1.9,3.1,4.5,3.1,8c0,3.8-1.3,6.9-3.8,9.3C134.1,60.9,130.3,62.1,125.3,62.1L125.3,62.1z"/>
	</g>
	<rect x="14.2" y="76.3" width="126.2" height="4.8"/>
	<g>
		<path d="M14.2,123.4c0-0.4,0.2-0.6,0.6-0.6s0.6,0.2,0.6,0.6v8.9c0,0.4-0.2,0.6-0.6,0.6s-0.6-0.2-0.6-0.6V123.4z"/>
		<path d="M20.5,125.2c-0.1-0.2-0.1-0.4-0.1-0.5v7.6c0,0.3-0.2,0.6-0.6,0.6s-0.6-0.2-0.6-0.6v-9c0-0.3,0.2-0.6,0.5-0.6
			c0.2,0,0.4,0.1,0.7,0.5l4.6,7.2c0.1,0.1,0.1,0.3,0.1,0.4v-7.5c0-0.4,0.2-0.6,0.6-0.6s0.6,0.2,0.6,0.6v9c0,0.4-0.3,0.6-0.5,0.6
			c-0.2,0-0.4,0-0.7-0.5L20.5,125.2L20.5,125.2z"/>
		<path d="M32.1,132.9c-1.1,0-1.8-0.3-2.4-0.5c-0.2-0.1-0.3-0.3-0.3-0.5c0-0.3,0.3-0.6,0.8-0.4c0.5,0.2,1.1,0.4,1.9,0.4
			c1,0,1.8-0.4,1.8-1.6c0-1-0.7-1.6-1.7-2.3c-1.2-0.8-2.4-1.5-2.4-3c0-1.4,1-2.2,2.7-2.2c0.9,0,1.6,0.2,2.1,0.5
			c0.2,0.1,0.2,0.3,0.2,0.4c0,0.3-0.3,0.6-0.7,0.4c-0.4-0.2-0.9-0.4-1.5-0.4c-1.1,0-1.5,0.4-1.5,1.2c0,1.1,1.1,1.6,2.2,2.4
			c1.1,0.8,1.9,1.6,1.9,3C35.2,132.2,33.8,132.9,32.1,132.9L32.1,132.9z"/>
		<path d="M39.7,123.9h-1.6c-0.4,0-0.5-0.2-0.5-0.5c0-0.3,0.2-0.5,0.5-0.5h4.4c0.3,0,0.5,0.2,0.5,0.5c0,0.3-0.2,0.5-0.5,0.5h-1.6
			v8.4c0,0.4-0.2,0.6-0.6,0.6s-0.6-0.3-0.6-0.6C39.7,132.3,39.7,123.9,39.7,123.9z"/>
		<path d="M45.9,123.4c0-0.4,0.2-0.6,0.6-0.6s0.6,0.2,0.6,0.6v8.9c0,0.4-0.2,0.6-0.6,0.6s-0.6-0.2-0.6-0.6V123.4z"/>
		<path d="M52.1,123.9h-1.6c-0.4,0-0.5-0.2-0.5-0.5c0-0.3,0.2-0.5,0.5-0.5H55c0.3,0,0.5,0.2,0.5,0.5c0,0.3-0.2,0.5-0.5,0.5h-1.6v8.4
			c0,0.4-0.2,0.6-0.6,0.6s-0.6-0.3-0.6-0.6C52.1,132.3,52.1,123.9,52.1,123.9z"/>
		<path d="M62.9,123.4c0-0.4,0.2-0.6,0.6-0.6s0.6,0.2,0.6,0.6v6.7c0,2.3-1.5,2.9-3,2.9s-3-0.5-3-2.9v-6.7c0-0.4,0.2-0.6,0.6-0.6
			s0.6,0.2,0.6,0.6v6.4c0,1.9,1.2,2,1.7,2s1.7-0.1,1.7-2L62.9,123.4L62.9,123.4z"/>
		<path d="M69.1,123.9h-1.6c-0.4,0-0.5-0.2-0.5-0.5c0-0.3,0.2-0.5,0.5-0.5h4.4c0.3,0,0.5,0.2,0.5,0.5c0,0.3-0.2,0.5-0.5,0.5h-1.6
			v8.4c0,0.4-0.2,0.6-0.6,0.6s-0.6-0.3-0.6-0.6C69.1,132.3,69.1,123.9,69.1,123.9z"/>
		<path d="M75.9,132.8c-0.4,0-0.6-0.3-0.6-0.6v-8.6c0-0.4,0.2-0.6,0.6-0.6h3.5c0.3,0,0.5,0.2,0.5,0.5s-0.2,0.5-0.5,0.5h-2.8v3.3h2.5
			c0.3,0,0.5,0.2,0.5,0.5s-0.2,0.5-0.5,0.5h-2.5v3.5h2.8c0.3,0,0.5,0.2,0.5,0.5s-0.2,0.5-0.5,0.5L75.9,132.8L75.9,132.8z"/>
		<path d="M89.6,132.9c-1.1,0-1.8-0.3-2.4-0.5c-0.2-0.1-0.3-0.3-0.3-0.5c0-0.3,0.3-0.6,0.8-0.4c0.5,0.2,1.1,0.4,1.9,0.4
			c1,0,1.8-0.4,1.8-1.6c0-1-0.7-1.6-1.7-2.3c-1.2-0.8-2.4-1.5-2.4-3c0-1.4,1-2.2,2.7-2.2c0.9,0,1.6,0.2,2.1,0.5
			c0.2,0.1,0.2,0.3,0.2,0.4c0,0.3-0.3,0.6-0.7,0.4c-0.4-0.2-0.9-0.4-1.5-0.4c-1.1,0-1.6,0.4-1.6,1.2c0,1.1,1.1,1.6,2.2,2.4
			c1.1,0.8,1.9,1.6,1.9,3C92.6,132.2,91.2,132.9,89.6,132.9L89.6,132.9z"/>
		<path d="M97.1,123.9h-1.6c-0.4,0-0.5-0.2-0.5-0.5c0-0.3,0.2-0.5,0.5-0.5h4.4c0.3,0,0.5,0.2,0.5,0.5c0,0.3-0.2,0.5-0.5,0.5h-1.6
			v8.4c0,0.4-0.2,0.6-0.6,0.6s-0.6-0.3-0.6-0.6C97.1,132.3,97.1,123.9,97.1,123.9z"/>
		<path d="M107.9,123.4c0-0.4,0.2-0.6,0.6-0.6s0.6,0.2,0.6,0.6v6.7c0,2.3-1.5,2.9-3,2.9s-3-0.5-3-2.9v-6.7c0-0.4,0.2-0.6,0.6-0.6
			s0.6,0.2,0.6,0.6v6.4c0,1.9,1.2,2,1.7,2s1.7-0.1,1.7-2L107.9,123.4L107.9,123.4z"/>
		<path d="M112.8,123.5c0-0.3,0.3-0.6,0.6-0.6c0.4-0.1,0.8-0.1,1.2-0.1c3.2,0,4.6,2.5,4.6,5.1c0,2.6-1.4,5.1-4.6,5.1
			c-0.4,0-0.9-0.1-1.2-0.1c-0.3-0.1-0.6-0.3-0.6-0.6C112.8,132.1,112.8,123.5,112.8,123.5z M114.1,131.8c0.2,0.1,0.5,0.1,0.7,0.1
			c2.1,0,3.2-1.9,3.2-4s-1.1-4-3.2-4c-0.2,0-0.5,0-0.7,0.1V131.8z"/>
		<path d="M122.4,123.4c0-0.4,0.2-0.6,0.6-0.6s0.6,0.2,0.6,0.6v8.9c0,0.4-0.2,0.6-0.6,0.6s-0.6-0.2-0.6-0.6V123.4z"/>
		<path d="M128,132.8c-0.4,0-0.6-0.3-0.6-0.6v-8.6c0-0.4,0.2-0.6,0.6-0.6h3.5c0.3,0,0.5,0.2,0.5,0.5s-0.2,0.5-0.5,0.5h-2.9v3.3h2.5
			c0.3,0,0.5,0.2,0.5,0.5s-0.2,0.5-0.5,0.5h-2.5v3.5h2.8c0.3,0,0.5,0.2,0.5,0.5s-0.2,0.5-0.5,0.5L128,132.8L128,132.8z"/>
		<path d="M137.4,132.9c-1.1,0-1.8-0.3-2.4-0.5c-0.2-0.1-0.3-0.3-0.3-0.5c0-0.3,0.3-0.6,0.8-0.4c0.5,0.2,1.1,0.4,1.9,0.4
			c1,0,1.9-0.4,1.9-1.6c0-1-0.7-1.6-1.7-2.3c-1.2-0.8-2.4-1.5-2.4-3c0-1.4,1-2.2,2.7-2.2c0.9,0,1.6,0.2,2.1,0.5
			c0.2,0.1,0.2,0.3,0.2,0.4c0,0.3-0.3,0.6-0.7,0.4c-0.4-0.2-0.9-0.4-1.5-0.4c-1.1,0-1.6,0.4-1.6,1.2c0,1.1,1.1,1.6,2.2,2.4
			c1.1,0.8,1.9,1.6,1.9,3C140.4,132.2,139.1,132.9,137.4,132.9L137.4,132.9z"/>
		<g>
			<path d="M14.9,105.3c-0.4,0-0.6-0.2-0.6-0.6v-8.8c0-0.4,0.2-0.6,0.6-0.6s0.6,0.2,0.6,0.6v8.4h1.9c0.3,0,0.5,0.2,0.5,0.5
				s-0.2,0.5-0.5,0.5C17.4,105.3,14.9,105.3,14.9,105.3z"/>
			<path d="M20.8,105.3c-0.4,0-0.6-0.3-0.6-0.6v-8.6c0-0.4,0.2-0.6,0.6-0.6h3.5c0.3,0,0.5,0.2,0.5,0.5s-0.2,0.5-0.5,0.5h-2.9v3.3H24
				c0.3,0,0.5,0.2,0.5,0.5s-0.2,0.5-0.5,0.5h-2.5v3.5h2.8c0.3,0,0.5,0.2,0.5,0.5s-0.2,0.5-0.5,0.5L20.8,105.3L20.8,105.3z"/>
			<path d="M34.5,100.9h-1.8c-0.3,0-0.5-0.2-0.5-0.5s0.2-0.5,0.5-0.5H35c0.3,0,0.6,0.2,0.6,0.6v3.9c0,0.2-0.2,0.4-0.5,0.5
				c-0.7,0.3-1.7,0.6-2.9,0.6c-3,0-4.9-1.9-4.9-5.1s1.9-5.1,4.9-5.1c1,0,2.2,0.2,2.9,0.8c0.1,0.1,0.2,0.2,0.2,0.4
				c0,0.3-0.2,0.5-0.5,0.5c-0.1,0-0.2-0.1-0.3-0.1c-0.6-0.4-1.4-0.6-2.3-0.6c-2.4,0-3.7,1.4-3.7,4s1.3,4,3.7,4
				c0.8,0,1.6-0.1,2.2-0.4L34.5,100.9L34.5,100.9z"/>
			<path d="M42.4,102.3h-2.6l-0.7,2.5c-0.1,0.4-0.3,0.7-0.6,0.7s-0.6-0.2-0.6-0.6c0-0.1,0-0.3,0.1-0.4l2.4-8.4
				c0.1-0.4,0.2-0.8,0.8-0.8s0.6,0.4,0.7,0.8l2.4,8.4c0,0.1,0.1,0.2,0.1,0.4c0,0.3-0.3,0.6-0.6,0.6s-0.5-0.2-0.6-0.6L42.4,102.3
				L42.4,102.3z M41.1,97.3l-1.1,4h2.1L41.1,97.3z"/>
			<path d="M47.5,105.3c-0.4,0-0.6-0.2-0.6-0.6v-8.8c0-0.4,0.2-0.6,0.6-0.6s0.6,0.2,0.6,0.6v8.4H50c0.3,0,0.5,0.2,0.5,0.5
				s-0.2,0.5-0.5,0.5C50,105.3,47.5,105.3,47.5,105.3z"/>
			<g>
				<path d="M57.3,100.4c0-3.1,2.2-5.1,5-5.1c2.8,0,5,2,5,5.1s-2.2,5.1-5,5.1S57.3,103.5,57.3,100.4z M66,100.4c0-2.5-1.6-4-3.7-4
					s-3.7,1.6-3.7,4s1.6,4,3.7,4S66,102.9,66,100.4z"/>
				<path d="M70.1,96.1c0-0.3,0.2-0.6,0.7-0.7c0.3-0.1,0.7-0.1,1-0.1c2.3,0,3.6,1.1,3.6,3c0,2.1-1.3,3.1-3.4,3.1
					c-0.2,0-0.4,0-0.7-0.1v3.5c0,0.3-0.3,0.6-0.6,0.6s-0.6-0.3-0.6-0.6L70.1,96.1L70.1,96.1z M71.3,100.3c0.2,0.1,0.5,0.1,0.7,0.1
					c1.4,0,2.1-0.8,2.1-2s-0.7-2-2.1-2c-0.2,0-0.5,0-0.7,0.1C71.3,96.4,71.3,100.3,71.3,100.3z"/>
				<path d="M78.6,105.3c-0.4,0-0.6-0.3-0.6-0.6v-8.6c0-0.4,0.2-0.6,0.6-0.6h3.5c0.3,0,0.5,0.2,0.5,0.5s-0.2,0.5-0.5,0.5h-2.8v3.3
					h2.5c0.3,0,0.5,0.2,0.5,0.5s-0.2,0.5-0.5,0.5h-2.5v3.5h2.8c0.3,0,0.5,0.2,0.5,0.5s-0.2,0.5-0.5,0.5L78.6,105.3L78.6,105.3z"/>
				<path d="M87.8,101.3c-0.1,0-0.3,0-0.5,0c-0.2,0-0.4,0-0.7-0.1v3.5c0,0.3-0.3,0.6-0.6,0.6s-0.6-0.3-0.6-0.6V96
					c0-0.3,0.2-0.6,0.7-0.7c0.3-0.1,0.7-0.1,1-0.1c2.3,0,3.6,1.2,3.6,3c0,1.5-0.6,2.4-1.7,2.8l1.6,3.1c0.1,0.3,0.2,0.5,0.2,0.7
					c0,0.3-0.2,0.6-0.6,0.6c-0.5,0-0.6-0.4-0.9-1.1L87.8,101.3L87.8,101.3z M86.7,100.3c0.2,0.1,0.5,0.1,0.7,0.1c1.4,0,2.1-1,2.1-2
					s-0.7-2-2.1-2c-0.2,0-0.5,0-0.7,0.1C86.7,96.4,86.7,100.3,86.7,100.3z"/>
				<path d="M97.4,102.3h-2.6l-0.7,2.5c-0.1,0.4-0.3,0.7-0.6,0.7s-0.6-0.2-0.6-0.6c0-0.1,0-0.3,0.1-0.4l2.4-8.4
					c0.1-0.4,0.2-0.8,0.8-0.8s0.6,0.4,0.7,0.8l2.4,8.4c0,0.1,0.1,0.2,0.1,0.4c0,0.3-0.3,0.6-0.6,0.6s-0.5-0.2-0.6-0.6L97.4,102.3
					L97.4,102.3z M96.1,97.3l-1.1,4h2.1L96.1,97.3z"/>
				<path d="M102.3,96.5h-1.6c-0.4,0-0.5-0.2-0.5-0.5c0-0.3,0.2-0.5,0.5-0.5h4.4c0.3,0,0.5,0.2,0.5,0.5c0,0.3-0.2,0.5-0.5,0.5h-1.6
					v8.4c0,0.3-0.2,0.6-0.6,0.6s-0.6-0.3-0.6-0.6C102.3,104.8,102.3,96.5,102.3,96.5z"/>
				<path d="M108.1,95.9c0-0.4,0.2-0.6,0.6-0.6s0.6,0.2,0.6,0.6v8.9c0,0.4-0.2,0.6-0.6,0.6s-0.6-0.2-0.6-0.6V95.9z"/>
				<path d="M112.1,100.4c0-3.1,2.2-5.1,5-5.1s5,2,5,5.1s-2.2,5.1-5,5.1S112.1,103.5,112.1,100.4z M120.8,100.4c0-2.5-1.6-4-3.7-4
					s-3.7,1.6-3.7,4s1.6,4,3.7,4S120.8,102.9,120.8,100.4z"/>
				<path d="M126.2,97.8c-0.1-0.2-0.1-0.4-0.1-0.5v7.6c0,0.3-0.2,0.6-0.6,0.6s-0.6-0.2-0.6-0.6v-9c0-0.3,0.2-0.6,0.5-0.6
					c0.2,0,0.4,0.1,0.7,0.5l4.6,7.2c0.1,0.1,0.1,0.3,0.1,0.4v-7.5c0-0.4,0.2-0.6,0.6-0.6s0.6,0.2,0.6,0.6v9c0,0.3-0.3,0.6-0.6,0.6
					c-0.2,0-0.4,0-0.7-0.5L126.2,97.8L126.2,97.8z"/>
				<path d="M137.4,105.5c-1.1,0-1.8-0.3-2.4-0.5c-0.2-0.1-0.3-0.3-0.3-0.5c0-0.3,0.3-0.6,0.8-0.4c0.5,0.2,1.1,0.4,1.9,0.4
					c1,0,1.9-0.4,1.9-1.6c0-1-0.7-1.6-1.7-2.3c-1.2-0.8-2.4-1.5-2.4-3c0-1.4,1-2.2,2.7-2.2c0.9,0,1.6,0.2,2.1,0.5
					c0.2,0.1,0.2,0.3,0.2,0.4c0,0.3-0.3,0.6-0.7,0.4c-0.4-0.2-0.9-0.4-1.5-0.4c-1.1,0-1.6,0.4-1.6,1.2c0,1.1,1.1,1.6,2.2,2.4
					c1.1,0.8,1.9,1.6,1.9,3C140.4,104.8,139.1,105.5,137.4,105.5L137.4,105.5z"/>
			</g>
		</g>
	</g>
</g>
</svg>
