<?xml version="1.0" encoding="UTF-8"?><svg id="a" xmlns="http://www.w3.org/2000/svg" viewBox="0 0 300 113.84"><defs><style>.b{fill:#eb6465;}.c{fill:#333;}.d{fill:#f8c6c6;}.e{fill:#603535;}.f{fill:#999;}.g{fill:#ccc;}.h{fill:#e63b3c;}</style></defs><path d="M0,112.71V12.56H22.53V96.19H55.08v16.53H0Z"/><path d="M157.85,112.71v-16.53h18.78V29.09h-18.78V12.56h60.09V29.09h-18.78V96.19h18.78v16.53h-60.09Z"/><path d="M264.07,113.84c-5.18,0-10.62-.79-16.34-2.38-5.72-1.59-11.41-3.92-17.09-7.01l3.51-17.15c5.26,3.25,10.56,5.74,15.9,7.45,5.34,1.71,10.52,2.57,15.52,2.57,4.01,0,6.99-1.02,8.95-3.07,1.96-2.04,2.94-4.74,2.94-8.08,0-3.67-1.36-6.43-4.07-8.26-2.71-1.84-6.99-3.55-12.83-5.13-9.43-2.67-16.8-6.15-22.1-10.45-5.3-4.3-7.95-10.66-7.95-19.09,0-9.26,3.02-16.86,9.08-22.78,6.05-5.92,14.21-8.89,24.47-8.89,5.76,0,11.27,.73,16.53,2.19,5.26,1.46,9.97,3.61,14.15,6.45l-2.38,16.28c-4.76-2.84-9.45-4.99-14.08-6.45-4.63-1.46-8.95-2.19-12.96-2.19s-6.89,.96-9.14,2.88c-2.25,1.92-3.38,4.67-3.38,8.26s1.15,6.38,3.44,8.14c2.29,1.75,6.82,3.63,13.58,5.63,10.27,3,17.86,6.72,22.78,11.14,4.92,4.42,7.39,10.77,7.39,19.03,0,8.93-3.03,16.32-9.08,22.16-6.05,5.84-15,8.76-26.85,8.76Z"/><path class="g" d="M156.37,74l-21.98-5.01c-1.95,8.56-7.76,15.66-15.48,19.4l9.8,20.33c13.82-6.68,24.18-19.39,27.66-34.72Z"/><path class="h" d="M100.99,22.55V0c-16.21,0-30.65,7.55-40.03,19.31l17.65,14.05c5.25-6.58,13.33-10.81,22.38-10.81Z"/><path class="e" d="M84.11,44.82l-17.65-14.05c-6.97,8.74-11.14,19.81-11.14,31.86,0,3.93,.45,7.75,1.29,11.42l21.99-5.04c-.47-2.06-.73-4.19-.73-6.39,0-6.73,2.34-12.92,6.24-17.81Z"/><path class="c" d="M78.59,69.02l-21.99,5.04c3.5,15.33,13.87,28.04,27.7,34.7l9.78-20.33c-7.73-3.73-13.53-10.84-15.49-19.4Z"/><path class="f" d="M128.71,108.72l-9.8-20.33c-3.76,1.82-7.97,2.86-12.42,2.86s-8.65-1.02-12.4-2.83l-9.78,20.33c6.71,3.23,14.23,5.04,22.18,5.04s15.5-1.83,22.22-5.08Z"/><path class="d" d="M146.48,30.73l-17.63,14.07c3.91,4.9,6.26,11.1,6.26,17.84,0,2.19-.25,4.31-.72,6.36l21.98,5.01c.83-3.66,1.28-7.46,1.28-11.37,0-12.07-4.19-23.15-11.18-31.9Z"/><path class="b" d="M106.49,11.47v22.55h0c9.04,0,17.11,4.22,22.36,10.79l17.63-14.07c-9.38-11.74-23.8-19.27-39.99-19.27Z"/></svg>